<svg width="76" height="76" viewBox="0 0 76 76" fill="none" xmlns="http://www.w3.org/2000/svg">
    <path fill-rule="evenodd" clip-rule="evenodd"
        d="M1.10001 44.7002L3.5 44.1002C3.3 43.2002 3.20001 42.3002 3.10001 41.4002H0.600006C0.500006 40.3002 0.5 39.3002 0.5 38.2002C0.5 37.1002 0.500006 36.0002 0.600006 35.0002H3.10001C3.20001 34.1002 3.3 33.2002 3.5 32.3002L1.10001 31.7002C1.50001 29.6002 2 27.5002 2.8 25.5002L5.2 26.1002C5.5 25.2002 5.9 24.4002 6.2 23.6002L4 22.4002C4.9 20.4002 6 18.6002 7.2 16.8002L9.39999 18.0002C9.89999 17.3002 10.5 16.5002 11.1 15.8002L9.3 14.0002C10.7 12.4002 12.2 10.8002 13.8 9.50019L15.6 11.3002C16.3 10.7002 17 10.2002 17.8 9.60019L16.6 7.4002C18.4 6.2002 20.2 5.1002 22.2 4.2002L23.4 6.4002C24.2 6.0002 25.1 5.7002 25.9 5.4002L25.3 3.0002C27.3 2.3002 29.4 1.7002 31.5 1.3002L32.1 3.7002C33 3.5002 33.9 3.4002 34.8 3.3002V0.800195C35.9 0.700195 36.9 0.700195 38 0.700195C39.1 0.700195 40.2 0.700195 41.2 0.800195V3.3002C42.1 3.4002 43 3.5002 43.9 3.7002L44.5 1.3002C46.6 1.7002 48.7 2.2002 50.7 3.0002L50.1 5.4002C51 5.7002 51.8 6.1002 52.6 6.4002L53.8 4.2002C55.8 5.1002 57.6 6.2002 59.4 7.4002L58.2 9.60019C58.9 10.1002 59.7 10.7002 60.4 11.3002L62.2 9.50019C63.8 10.9002 65.4 12.4002 66.7 14.0002L64.9 15.8002C65.5 16.5002 66 17.2002 66.6 18.0002L68.8 16.8002C70 18.6002 71.1 20.4002 72 22.4002L69.8 23.6002C70.2 24.4002 70.5 25.3002 70.8 26.1002L73.2 25.5002C73.9 27.5002 74.5 29.6002 74.9 31.7002L72.5 32.3002C72.7 33.2002 72.8 34.1002 72.9 35.0002H75.4C75.5 36.1002 75.5 37.1002 75.5 38.2002C75.5 39.3002 75.5 40.4002 75.4 41.4002H72.9C72.8 42.3002 72.7 43.2002 72.5 44.1002L74.9 44.7002C74.5 46.8002 74 48.9002 73.2 50.9002L70.8 50.3002C70.5 51.2002 70.1 52.0002 69.8 52.8002L72 54.0002C71.1 56.0002 70 57.8002 68.8 59.6002L66.6 58.4002C66.1 59.1002 65.5 59.9002 64.9 60.6002L66.7 62.4002C65.3 64.0002 63.8 65.6002 62.2 66.9002L60.4 65.1002C59.7 65.7002 59 66.2002 58.2 66.8002L59.4 69.0002C57.6 70.2002 55.8 71.3002 53.8 72.2002L52.6 70.0002C51.8 70.4002 50.9 70.7002 50.1 71.0002L50.7 73.4002C48.7 74.1002 46.6 74.7002 44.5 75.1002L43.9 72.7002C43 72.9002 42.1 73.0002 41.2 73.1002V75.6002C40.1 75.7002 39.1 75.7002 38 75.7002C36.9 75.7002 35.8 75.7002 34.8 75.6002V73.0002C33.9 72.9002 33 72.8002 32.1 72.6002L31.5 75.0002C29.4 74.6002 27.3 74.1002 25.3 73.3002L25.9 70.9002C25 70.6002 24.2 70.2002 23.4 69.9002L22.2 72.1002C20.2 71.2002 18.4 70.1002 16.6 68.9002L17.8 66.7002C17.1 66.2002 16.3 65.6002 15.6 65.0002L13.8 66.8002C12.2 65.4002 10.6 63.9002 9.3 62.3002L11.1 60.5002C10.5 59.8002 9.99999 59.1002 9.39999 58.3002L7.2 59.5002C6 57.7002 4.9 55.9002 4 53.9002L6.2 52.7002C5.8 51.9002 5.5 51.0002 5.2 50.2002L2.8 50.8002C2 48.9002 1.50001 46.9002 1.10001 44.7002Z"
        fill="white" />
    <path
        d="M1.10001 44.7002L3.5 44.1002C3.3 43.2002 3.20001 42.3002 3.10001 41.4002H0.600006C0.500006 40.3002 0.5 39.3002 0.5 38.2002C0.5 37.1002 0.500006 36.0002 0.600006 35.0002H3.10001C3.20001 34.1002 3.3 33.2002 3.5 32.3002L1.10001 31.7002C1.50001 29.6002 2 27.5002 2.8 25.5002L5.2 26.1002C5.5 25.2002 5.9 24.4002 6.2 23.6002L4 22.4002C4.9 20.4002 6 18.6002 7.2 16.8002L9.39999 18.0002C9.89999 17.3002 10.5 16.5002 11.1 15.8002L9.3 14.0002C10.7 12.4002 12.2 10.8002 13.8 9.50019L15.6 11.3002C16.3 10.7002 17 10.2002 17.8 9.60019L16.6 7.4002C18.4 6.2002 20.2 5.1002 22.2 4.2002L23.4 6.4002C24.2 6.0002 25.1 5.7002 25.9 5.4002L25.3 3.0002C27.3 2.3002 29.4 1.7002 31.5 1.3002L32.1 3.7002C33 3.5002 33.9 3.4002 34.8 3.3002V0.800195C35.9 0.700195 36.9 0.700195 38 0.700195C39.1 0.700195 40.2 0.700195 41.2 0.800195V3.3002C42.1 3.4002 43 3.5002 43.9 3.7002L44.5 1.3002C46.6 1.7002 48.7 2.2002 50.7 3.0002L50.1 5.4002C51 5.7002 51.8 6.1002 52.6 6.4002L53.8 4.2002C55.8 5.1002 57.6 6.2002 59.4 7.4002L58.2 9.60019C58.9 10.1002 59.7 10.7002 60.4 11.3002L62.2 9.50019C63.8 10.9002 65.4 12.4002 66.7 14.0002L64.9 15.8002C65.5 16.5002 66 17.2002 66.6 18.0002L68.8 16.8002C70 18.6002 71.1 20.4002 72 22.4002L69.8 23.6002C70.2 24.4002 70.5 25.3002 70.8 26.1002L73.2 25.5002C73.9 27.5002 74.5 29.6002 74.9 31.7002L72.5 32.3002C72.7 33.2002 72.8 34.1002 72.9 35.0002H75.4C75.5 36.1002 75.5 37.1002 75.5 38.2002C75.5 39.3002 75.5 40.4002 75.4 41.4002H72.9C72.8 42.3002 72.7 43.2002 72.5 44.1002L74.9 44.7002C74.5 46.8002 74 48.9002 73.2 50.9002L70.8 50.3002C70.5 51.2002 70.1 52.0002 69.8 52.8002L72 54.0002C71.1 56.0002 70 57.8002 68.8 59.6002L66.6 58.4002C66.1 59.1002 65.5 59.9002 64.9 60.6002L66.7 62.4002C65.3 64.0002 63.8 65.6002 62.2 66.9002L60.4 65.1002C59.7 65.7002 59 66.2002 58.2 66.8002L59.4 69.0002C57.6 70.2002 55.8 71.3002 53.8 72.2002L52.6 70.0002C51.8 70.4002 50.9 70.7002 50.1 71.0002L50.7 73.4002C48.7 74.1002 46.6 74.7002 44.5 75.1002L43.9 72.7002C43 72.9002 42.1 73.0002 41.2 73.1002V75.6002C40.1 75.7002 39.1 75.7002 38 75.7002C36.9 75.7002 35.8 75.7002 34.8 75.6002V73.0002C33.9 72.9002 33 72.8002 32.1 72.6002L31.5 75.0002C29.4 74.6002 27.3 74.1002 25.3 73.3002L25.9 70.9002C25 70.6002 24.2 70.2002 23.4 69.9002L22.2 72.1002C20.2 71.2002 18.4 70.1002 16.6 68.9002L17.8 66.7002C17.1 66.2002 16.3 65.6002 15.6 65.0002L13.8 66.8002C12.2 65.4002 10.6 63.9002 9.3 62.3002L11.1 60.5002C10.5 59.8002 9.99999 59.1002 9.39999 58.3002L7.2 59.5002C6 57.7002 4.9 55.9002 4 53.9002L6.2 52.7002C5.8 51.9002 5.5 51.0002 5.2 50.2002L2.8 50.8002C2 48.9002 1.50001 46.9002 1.10001 44.7002Z"
        stroke="black" stroke-width="0.1306" stroke-miterlimit="2.6131" />
    <path fill-rule="evenodd" clip-rule="evenodd"
        d="M1.10001 44.6998L3.5 44.0998C3.3 43.1998 3.20001 42.2998 3.10001 41.3998H0.600006C0.500006 40.2998 0.5 39.2998 0.5 38.1998C0.5 37.3998 0.500006 36.5998 0.600006 35.7998L1 35.3998L4.2 35.5998H71.3L75 35.2998L75.4 35.7998C75.4 36.5998 75.5 37.3998 75.5 38.1998C75.5 39.2998 75.5 40.3998 75.4 41.3998H72.9C72.8 42.2998 72.7 43.1998 72.5 44.0998L74.9 44.6998C74.5 46.7998 74 48.8998 73.2 50.8998L70.8 50.2998C70.5 51.1998 70.1 51.9998 69.8 52.7998L72 53.9998C71.1 55.9998 70 57.7998 68.8 59.5998L66.6 58.3998C66.1 59.0998 65.5 59.8998 64.9 60.5998L66.7 62.3998C65.3 63.9998 63.8 65.5998 62.2 66.8998L60.4 65.0998C59.7 65.6998 59 66.1998 58.2 66.7998L59.4 68.9998C57.6 70.1998 55.8 71.2998 53.8 72.1998L52.6 69.9998C51.8 70.3998 50.9 70.6998 50.1 70.9998L50.7 73.3998C48.7 74.0998 46.6 74.6998 44.5 75.0998L43.9 72.6998C43 72.8998 42.1 72.9998 41.2 73.0998V75.5998C40.1 75.6998 39.1 75.6998 38 75.6998C36.9 75.6998 35.8 75.6998 34.8 75.5998V72.9998C33.9 72.8998 33 72.7998 32.1 72.5998L31.5 74.9998C29.4 74.5998 27.3 74.0998 25.3 73.2998L25.9 70.8998C25 70.5998 24.2 70.1998 23.4 69.8998L22.2 72.0998C20.2 71.1998 18.4 70.0998 16.6 68.8998L17.8 66.6998C17.1 66.1998 16.3 65.5998 15.6 64.9998L13.8 66.7998C12.2 65.3998 10.6 63.8998 9.3 62.2998L11.1 60.4998C10.5 59.7998 9.99999 59.0998 9.39999 58.2998L7.2 59.4998C6 57.6998 4.9 55.8998 4 53.8998L6.2 52.6998C5.8 51.8998 5.5 50.9998 5.2 50.1998L2.8 50.7998C2 48.8998 1.50001 46.8998 1.10001 44.6998Z"
        fill="black" />
    <path
        d="M1.10001 44.6998L3.5 44.0998C3.3 43.1998 3.20001 42.2998 3.10001 41.3998H0.600006C0.500006 40.2998 0.5 39.2998 0.5 38.1998C0.5 37.3998 0.500006 36.5998 0.600006 35.7998L1 35.3998L4.2 35.5998H71.3L75 35.2998L75.4 35.7998C75.4 36.5998 75.5 37.3998 75.5 38.1998C75.5 39.2998 75.5 40.3998 75.4 41.3998H72.9C72.8 42.2998 72.7 43.1998 72.5 44.0998L74.9 44.6998C74.5 46.7998 74 48.8998 73.2 50.8998L70.8 50.2998C70.5 51.1998 70.1 51.9998 69.8 52.7998L72 53.9998C71.1 55.9998 70 57.7998 68.8 59.5998L66.6 58.3998C66.1 59.0998 65.5 59.8998 64.9 60.5998L66.7 62.3998C65.3 63.9998 63.8 65.5998 62.2 66.8998L60.4 65.0998C59.7 65.6998 59 66.1998 58.2 66.7998L59.4 68.9998C57.6 70.1998 55.8 71.2998 53.8 72.1998L52.6 69.9998C51.8 70.3998 50.9 70.6998 50.1 70.9998L50.7 73.3998C48.7 74.0998 46.6 74.6998 44.5 75.0998L43.9 72.6998C43 72.8998 42.1 72.9998 41.2 73.0998V75.5998C40.1 75.6998 39.1 75.6998 38 75.6998C36.9 75.6998 35.8 75.6998 34.8 75.5998V72.9998C33.9 72.8998 33 72.7998 32.1 72.5998L31.5 74.9998C29.4 74.5998 27.3 74.0998 25.3 73.2998L25.9 70.8998C25 70.5998 24.2 70.1998 23.4 69.8998L22.2 72.0998C20.2 71.1998 18.4 70.0998 16.6 68.8998L17.8 66.6998C17.1 66.1998 16.3 65.5998 15.6 64.9998L13.8 66.7998C12.2 65.3998 10.6 63.8998 9.3 62.2998L11.1 60.4998C10.5 59.7998 9.99999 59.0998 9.39999 58.2998L7.2 59.4998C6 57.6998 4.9 55.8998 4 53.8998L6.2 52.6998C5.8 51.8998 5.5 50.9998 5.2 50.1998L2.8 50.7998C2 48.8998 1.50001 46.8998 1.10001 44.6998Z"
        stroke="black" stroke-width="0.087099" stroke-miterlimit="2.6131" />
    <path fill-rule="evenodd" clip-rule="evenodd"
        d="M38.0002 3.99902C56.1002 3.99902 71.3002 17.999 72.5002 35.799H62.8002C61.6002 23.199 51.0002 13.299 38.1002 13.299C25.2002 13.299 14.5002 23.199 13.4002 35.799H3.7002C4.8002 17.999 19.9002 3.99902 38.0002 3.99902Z"
        fill="white" />
    <path fill-rule="evenodd" clip-rule="evenodd"
        d="M37.9999 13.0996C51.8999 13.0996 63.0999 24.2996 63.0999 38.1996C63.0999 52.0996 51.8999 63.2996 37.9999 63.2996C24.0999 63.2996 12.8999 52.0996 12.8999 38.1996C12.8999 24.2996 24.1999 13.0996 37.9999 13.0996Z"
        fill="white" />
    <path
        d="M37.9999 13.0996C51.8999 13.0996 63.0999 24.2996 63.0999 38.1996C63.0999 52.0996 51.8999 63.2996 37.9999 63.2996C24.0999 63.2996 12.8999 52.0996 12.8999 38.1996C12.8999 24.2996 24.1999 13.0996 37.9999 13.0996Z"
        stroke="black" stroke-width="0.1306" stroke-miterlimit="2.6131" />
    <path fill-rule="evenodd" clip-rule="evenodd"
        d="M38.8001 14.3994C37.7001 22.7994 15.9001 27.0994 18.8001 43.8994C19.2001 45.4994 19.6 46.3994 20.7 47.7994C25 53.3994 29.8001 55.0994 38.1001 56.8994C60.7001 52.8994 61 36.4994 52.2 34.7994C46.4 34.0994 41.5001 35.0994 37.6001 38.5994C45.8001 32.8994 55.4001 36.5994 51.8001 45.1994C50.3001 48.3994 43.8 52.6994 38 53.9994C24.7 50.9994 17.5 41.4994 27.9 30.1994C36 22.4994 38.9001 18.7994 38.8001 14.3994Z"
        fill="#BC1839" />
    <path fill-rule="evenodd" clip-rule="evenodd"
        d="M38.3001 20.3994C34.1001 29.2994 19.7001 33.7994 25.0001 44.9994C28.2001 49.4994 32.9001 51.8994 38.0001 53.1994C58.0001 47.0994 52.9001 33.0994 42.3001 37.0994C51.1001 35.9994 51.4001 46.4994 38.0001 50.6994C29.7001 48.7994 25.4001 43.8994 28.1001 37.1994C30.7001 30.3994 36.4001 28.7994 38.3001 20.3994Z"
        fill="#F48120" />
    <path fill-rule="evenodd" clip-rule="evenodd"
        d="M27.8999 40.6998C31.3999 34.6998 41.6999 35.6998 38.6999 20.2998C38.8999 32.8998 28.0999 34.1998 27.8999 40.6998Z"
        fill="#F48120" />
    <path d="M42.3001 57.6992H33.6001V59.4992H42.3001V57.6992Z" fill="#BC1839" />
    <path d="M40.9999 60.1992H34.8999V61.9992H40.9999V60.1992Z" fill="#BC1839" />
    <path fill-rule="evenodd" clip-rule="evenodd"
        d="M39.3002 18.0996C42.8002 24.3996 43.6002 30.4996 36.2002 35.9996C40.7002 30.2996 41.4002 24.2996 39.3002 18.0996Z"
        fill="#F48120" />
    <path fill-rule="evenodd" clip-rule="evenodd"
        d="M62.8 23.3998L64.2 21.7998L62.1 22.3998L62.8 23.3998ZM62 24.3998L60.9 22.6998L60 22.9998L59 21.4998L65 20.1998L66 21.7998L62.4 26.6998L61.4 25.0998L62 24.3998ZM58.6 16.2998L59.1 16.7998C59.2 16.8998 59.3 16.8998 59.5 17.0998C59.6 17.1998 59.7 17.1998 59.8 17.1998C59.9 17.1998 60 17.0998 60.1 16.9998C60.2 16.8998 60.3 16.6998 60.3 16.5998C60.3 16.3998 60.2 16.2998 59.9 15.9998L59.3 15.4998L58.6 16.2998ZM55 17.4998L58.9 13.3998L61 15.3998C61.4 15.7998 61.7 16.0998 61.8 16.3998C61.9 16.6998 62 16.9998 61.9 17.2998C61.9 17.5998 61.7 17.8998 61.5 18.1998C61.3 18.3998 61 18.5998 60.8 18.6998C60.5 18.7998 60.3 18.7998 60 18.6998C59.8 18.6998 59.6 18.5998 59.4 18.3998C59.5 18.5998 59.6 18.7998 59.6 18.8998C59.6 18.9998 59.6 19.0998 59.6 19.2998C59.6 19.4998 59.6 19.5998 59.5 19.6998L59 21.4998L57.6 20.0998L58.1 18.1998C58.2 17.9998 58.2 17.7998 58.2 17.6998C58.2 17.4998 58.1 17.3998 58 17.2998L57.9 17.1998L56.3 18.8998L55 17.4998ZM53.3 9.4998L57.3 11.9998L56.6 12.9998L54.1 11.3998L53.6 12.1998L55.9 13.6998L55.3 14.6998L53 13.1998L52.4 14.0998L55 15.6998L54.3 16.7998L50.3 14.1998L53.3 9.4998ZM46 10.1998L47.4 10.9998C47.2 11.3998 47 11.6998 46.7 11.8998C46.4 12.0998 46.1 12.2998 45.7 12.3998C45.3 12.4998 44.9 12.3998 44.4 12.2998C43.8 12.1998 43.3 11.9998 43 11.6998C42.7 11.3998 42.4 11.0998 42.2 10.4998C42 9.9998 42 9.3998 42.2 8.6998C42.4 7.7998 42.8 7.0998 43.4 6.7998C44 6.3998 44.8 6.2998 45.6 6.4998C46.3 6.6998 46.8 6.8998 47.2 7.2998C47.5 7.6998 47.7 8.1998 47.8 8.7998H46.2C46.2 8.5998 46.2 8.49981 46.1 8.39981C46 8.19981 45.9 8.0998 45.8 7.9998C45.7 7.8998 45.5 7.7998 45.4 7.7998C45 7.6998 44.7 7.7998 44.4 8.0998C44.2 8.2998 44 8.5998 43.9 9.0998C43.8 9.6998 43.8 10.1998 43.9 10.3998C44 10.6998 44.3 10.7998 44.6 10.8998C44.9 10.9998 45.2 10.8998 45.4 10.7998C45.7 10.7998 45.8 10.4998 46 10.1998ZM39.2 5.7998L41 5.8998L40.6 11.5998L38.8 11.4998L39.2 5.7998ZM31.3 6.39981L33 6.1998L33.3 8.1998L35.2 7.9998L34.9 5.9998L36.7 5.7998L37.4 11.4998L35.6 11.6998L35.3 9.39981L33.4 9.5998L33.7 11.8998L32 12.0998L31.3 6.39981ZM27.1 10.2998L27.5 10.0998C27.8 9.9998 28 9.7998 28.1 9.6998C28.2 9.4998 28.2 9.3998 28.1 9.1998C28 8.9998 27.9 8.8998 27.8 8.7998C27.6 8.6998 27.4 8.79981 27.1 8.89981L26.6 9.0998L27.1 10.2998ZM24.6 8.6998L27.3 7.5998C27.9 7.3998 28.4 7.2998 28.8 7.4998C29.2 7.6998 29.5 7.9998 29.7 8.4998C29.9 8.9998 29.9 9.49981 29.7 9.89981C29.5 10.2998 29.1 10.6998 28.4 10.8998L27.5 11.2998L28.3 13.2998L26.7 13.8998L24.6 8.6998ZM22.8 13.5998L21.2 12.1998L21.8 14.2998L22.8 13.5998ZM23.7 14.4998L22 15.5998L22.3 16.4998L20.8 17.4998L19.5 11.4998L21.1 10.4998L26 14.0998L24.4 15.0998L23.7 14.4998ZM15.7 17.9998L16.2 17.4998C16.3 17.3998 16.3 17.2998 16.5 17.0998C16.6 16.9998 16.6 16.8998 16.6 16.7998C16.6 16.6998 16.5 16.5998 16.4 16.4998C16.3 16.3998 16.1 16.2998 16 16.2998C15.8 16.2998 15.7 16.3998 15.4 16.6998L14.9 17.2998L15.7 17.9998ZM16.9 21.5998L12.8 17.6998L14.8 15.5998C15.2 15.1998 15.5 14.8998 15.8 14.7998C16.1 14.6998 16.4 14.5998 16.7 14.6998C17 14.6998 17.3 14.8998 17.6 15.0998C17.8 15.2998 18 15.5998 18.1 15.7998C18.2 16.0998 18.2 16.2998 18.1 16.5998C18.1 16.7998 18 16.9998 17.8 17.1998C18 17.0998 18.2 16.9998 18.3 16.9998C18.4 16.9998 18.5 16.9998 18.7 16.9998C18.9 16.9998 19 16.9998 19.1 17.0998L20.9 17.5998L19.5 18.9998L17.6 18.4998C17.4 18.3998 17.2 18.3998 17.1 18.3998C16.9 18.3998 16.8 18.4998 16.7 18.5998L16.6 18.6998L18.3 20.2998L16.9 21.5998ZM13.2 23.6998L12.2 23.0998L13.6 20.6998L15.7 21.8998C15.7 22.4998 15.7 22.9998 15.6 23.4998C15.5 23.8998 15.3 24.3998 15.1 24.7998C14.8 25.3998 14.4 25.7998 14 26.0998C13.6 26.3998 13.1 26.4998 12.6 26.3998C12.1 26.3998 11.6 26.1998 11.1 25.8998C10.6 25.5998 10.2 25.1998 9.89999 24.7998C9.59999 24.2998 9.5 23.7998 9.6 23.2998C9.6 22.8998 9.8 22.3998 10.1 21.7998C10.4 21.2998 10.7 20.8998 11 20.6998C11.3 20.4998 11.5 20.2998 11.8 20.2998C12.1 20.1998 12.5 20.2998 12.8 20.3998L12.2 21.9998C12 21.9998 11.8 21.9998 11.6 22.0998C11.4 22.1998 11.3 22.2998 11.1 22.5998C10.9 22.8998 10.9 23.2998 11 23.5998C11.1 23.8998 11.4 24.1998 11.9 24.4998C12.4 24.7998 12.9 24.8998 13.2 24.8998C13.5 24.7998 13.8 24.5998 14 24.2998C14.1 24.0998 14.2 23.9998 14.2 23.7998C14.2 23.5998 14.3 23.3998 14.3 23.0998L13.8 22.7998L13.2 23.6998Z"
        fill="#BC1839" />
    <path fill-rule="evenodd" clip-rule="evenodd"
        d="M66.9002 37.0996L69.4002 38.6996L71.3002 38.7996V39.8996L69.5002 39.7996L66.8002 41.2996V39.9996L68.4002 39.1996L66.8002 38.2996L66.9002 37.0996ZM70.7002 44.7996L67.2002 44.0996L67.0002 45.3996L66.2002 45.1996L66.9002 41.4996L67.7002 41.6996L67.5002 42.9996L71.0002 43.6996L70.7002 44.7996ZM70.1002 47.2996L69.3002 49.5996L68.6002 49.3996L68.8002 48.7996L66.1002 47.8996L65.9002 48.4996L65.2002 48.2996L66.0002 45.9996L66.7002 46.1996L66.5002 46.7996L69.2002 47.6996L69.4002 47.0996L70.1002 47.2996ZM68.1002 52.6996C68.0002 52.9996 67.8002 53.2996 67.6002 53.4996C67.4002 53.6996 67.3002 53.8996 67.1002 54.0996L66.1002 53.6996V53.5996C66.4002 53.4996 66.6002 53.2996 66.8002 53.0996C67.0002 52.8996 67.2002 52.6996 67.3002 52.3996C67.3002 52.2996 67.4002 52.2996 67.4002 52.1996C67.4002 52.0996 67.4002 51.9996 67.4002 51.8996C67.4002 51.7996 67.4002 51.6996 67.4002 51.6996C67.4002 51.5996 67.3002 51.5996 67.2002 51.4996C67.1002 51.4996 67.0002 51.4996 66.9002 51.4996C66.8002 51.5996 66.7002 51.5996 66.6002 51.6996C66.5002 51.7996 66.4002 51.9996 66.3002 52.0996C66.2002 52.1996 66.1002 52.3996 66.0002 52.4996C65.7002 52.7996 65.5002 52.8996 65.3002 52.9996C65.1002 53.0996 64.8002 52.9996 64.5002 52.8996C64.1002 52.6996 63.9002 52.3996 63.8002 51.9996C63.7002 51.5996 63.8002 51.0996 64.0002 50.5996C64.1002 50.3996 64.2002 50.0996 64.4002 49.8996C64.6002 49.6996 64.7002 49.4996 64.9002 49.2996L65.8002 49.6996V49.7996C65.6002 49.8996 65.4002 49.9996 65.2002 50.1996C65.0002 50.3996 64.9002 50.5996 64.8002 50.7996C64.8002 50.8996 64.7002 50.9996 64.7002 50.9996C64.7002 51.0996 64.7002 51.1996 64.7002 51.2996C64.7002 51.3996 64.7002 51.3996 64.8002 51.4996C64.8002 51.5996 64.9002 51.5996 65.0002 51.6996C65.1002 51.6996 65.2002 51.6996 65.3002 51.6996C65.4002 51.6996 65.5002 51.4996 65.7002 51.2996C65.8002 51.1996 65.9002 51.0996 66.0002 50.8996C66.1002 50.7996 66.2002 50.6996 66.3002 50.4996C66.5002 50.2996 66.8002 50.0996 67.0002 50.0996C67.2002 49.9996 67.5002 50.0996 67.8002 50.1996C68.2002 50.3996 68.5002 50.6996 68.6002 51.0996C68.4002 51.6996 68.4002 52.1996 68.1002 52.6996ZM63.3002 54.6996C63.2002 54.5996 63.1002 54.5996 63.0002 54.5996C62.9002 54.5996 62.8002 54.5996 62.7002 54.6996C62.6002 54.6996 62.6002 54.7996 62.5002 54.8996C62.4002 54.9996 62.4002 54.9996 62.3002 55.1996L62.1002 55.4996L63.1002 56.1996L63.3002 55.8996C63.4002 55.7996 63.5002 55.6996 63.5002 55.5996C63.5002 55.4996 63.6002 55.3996 63.6002 55.2996C63.6002 55.1996 63.6002 55.0996 63.5002 55.0996C63.5002 54.8996 63.4002 54.7996 63.3002 54.6996ZM66.9002 55.0996L66.1002 56.1996H64.0002L63.8002 56.4996L65.1002 57.4996L64.4002 58.3996L60.8002 55.7996L61.9002 54.3996C62.0002 54.1996 62.2002 53.9996 62.3002 53.8996C62.4002 53.7996 62.6002 53.6996 62.8002 53.5996C63.0002 53.4996 63.2002 53.4996 63.3002 53.4996C63.5002 53.4996 63.7002 53.5996 63.9002 53.6996C64.2002 53.8996 64.4002 54.0996 64.4002 54.3996C64.5002 54.5996 64.5002 54.8996 64.4002 55.1996L66.9002 55.0996ZM61.3002 61.9996L58.1002 58.8996L60.2002 56.6996L60.8002 57.2996L59.5002 58.6996L60.1002 59.1996L61.3002 57.8996L61.9002 58.4996L60.7002 59.7996L61.5002 60.5996L62.8002 59.1996L63.4002 59.7996L61.3002 61.9996ZM57.6002 59.4996L59.2002 63.8996L58.3002 64.5996L54.3002 62.0996L55.2002 61.3996L57.8002 63.0996L56.7002 60.0996L57.6002 59.4996ZM56.0002 66.2996L53.9002 67.4996L53.5002 66.7996L54.1002 66.4996L52.6002 63.9996L52.0002 64.2996L51.6002 63.5996L53.7002 62.3996L54.1002 63.0996L53.5002 63.3996L55.0002 65.8996L55.6002 65.5996L56.0002 66.2996ZM52.4002 68.2996L51.4002 68.6996L48.7002 66.4996L49.8002 69.3996L48.8002 69.7996L47.2002 65.6996L48.5002 65.1996L50.8002 66.9996L49.9002 64.5996L50.9002 64.1996L52.4002 68.2996ZM45.3002 70.7996C44.7002 70.8996 44.2002 70.8996 43.9002 70.6996C43.5002 70.4996 43.3002 70.0996 43.1002 69.5996L42.5002 66.7996L43.6002 66.4996L44.2002 69.1996C44.3002 69.4996 44.4002 69.6996 44.5002 69.7996C44.6002 69.8996 44.8002 69.9996 45.1002 69.8996C45.3002 69.7996 45.5002 69.6996 45.6002 69.5996C45.7002 69.3996 45.7002 69.1996 45.6002 68.8996L45.0002 66.1996L46.1002 65.8996L46.7002 68.6996C46.8002 69.1996 46.8002 69.6996 46.5002 69.9996C46.3002 70.3996 45.9002 70.5996 45.3002 70.7996ZM37.0002 71.4996L36.8002 67.0996L39.8002 66.9996V67.8996L37.9002 67.9996V68.7996L39.7002 68.6996V69.5996L37.9002 69.6996V70.7996L39.8002 70.6996V71.5996L37.0002 71.4996ZM34.4002 69.8996C34.4002 69.7996 34.4002 69.6996 34.4002 69.5996C34.4002 69.4996 34.3002 69.3996 34.2002 69.3996C34.1002 69.3996 34.0002 69.2996 33.9002 69.2996C33.8002 69.2996 33.6002 69.2996 33.4002 69.1996H33.2002L33.1002 70.2996H33.2002C33.5002 70.2996 33.7002 70.3996 33.8002 70.3996C33.9002 70.3996 34.0002 70.3996 34.1002 70.3996C34.2002 70.3996 34.3002 70.2996 34.3002 70.1996C34.3002 70.0996 34.3002 69.9996 34.4002 69.8996ZM34.3002 68.0996C34.3002 67.9996 34.3002 67.9996 34.3002 67.8996C34.3002 67.7996 34.2002 67.7996 34.1002 67.6996C34.0002 67.6996 33.9002 67.5996 33.8002 67.5996C33.7002 67.5996 33.6002 67.5996 33.4002 67.4996H33.3002L33.2002 68.3996H33.3002C33.5002 68.3996 33.6002 68.3996 33.7002 68.3996C33.8002 68.3996 33.9002 68.3996 33.9002 68.3996C34.0002 68.3996 34.1002 68.2996 34.1002 68.1996C34.3002 68.1996 34.3002 68.1996 34.3002 68.0996ZM35.5002 70.0996C35.5002 70.2996 35.4002 70.4996 35.3002 70.6996C35.2002 70.8996 35.1002 70.9996 34.9002 71.0996C34.7002 71.1996 34.5002 71.2996 34.3002 71.2996C34.1002 71.2996 33.8002 71.2996 33.5002 71.2996L31.7002 71.0996L32.2002 66.6996L33.8002 66.8996C34.1002 66.8996 34.4002 66.9996 34.5002 66.9996C34.7002 66.9996 34.8002 67.0996 35.0002 67.1996C35.1002 67.2996 35.3002 67.3996 35.3002 67.5996C35.4002 67.7996 35.4002 67.8996 35.4002 68.0996C35.4002 68.2996 35.3002 68.4996 35.2002 68.6996C35.1002 68.8996 34.9002 68.9996 34.7002 68.9996C35.0002 69.0996 35.2002 69.1996 35.3002 69.3996C35.5002 69.4996 35.5002 69.7996 35.5002 70.0996ZM28.2002 67.6996C28.3002 67.4996 28.4002 67.1996 28.4002 66.9996C28.4002 66.7996 28.4002 66.5996 28.4002 66.4996C28.4002 66.3996 28.3002 66.1996 28.2002 66.0996C28.1002 65.9996 28.0002 65.8996 27.9002 65.8996C27.8002 65.7996 27.6002 65.7996 27.5002 65.7996C27.4002 65.7996 27.2002 65.7996 27.1002 65.8996C27.0002 65.9996 26.8002 66.0996 26.7002 66.1996C26.6002 66.3996 26.5002 66.5996 26.4002 66.7996C26.3002 67.0996 26.2002 67.2996 26.2002 67.4996C26.2002 67.6996 26.2002 67.8996 26.2002 67.9996C26.2002 68.1996 26.3002 68.2996 26.4002 68.3996C26.5002 68.4996 26.6002 68.5996 26.7002 68.5996C26.8002 68.5996 27.0002 68.6996 27.1002 68.6996C27.2002 68.6996 27.4002 68.6996 27.5002 68.5996C27.6002 68.4996 27.8002 68.3996 27.9002 68.2996C28.0002 68.1996 28.1002 67.9996 28.2002 67.6996ZM29.3002 68.1996C29.0002 68.8996 28.6002 69.2996 28.1002 69.5996C27.6002 69.7996 27.0002 69.7996 26.4002 69.5996C25.8002 69.2996 25.4002 68.9996 25.2002 68.3996C25.0002 67.8996 25.0002 67.2996 25.3002 66.5996C25.6002 65.8996 26.0002 65.4996 26.5002 65.1996C27.0002 64.9996 27.6002 64.9996 28.2002 65.1996C28.8002 65.4996 29.2002 65.7996 29.4002 66.3996C29.6002 66.8996 29.6002 67.4996 29.3002 68.1996ZM21.2002 66.8996L23.0002 63.7996L21.9002 63.0996L22.3002 62.3996L25.5002 64.2996L25.1002 64.9996L24.0002 64.2996L22.2002 67.3996L21.2002 66.8996ZM18.2002 62.1996C18.4002 61.9996 18.5002 61.7996 18.6002 61.4996C18.7002 61.2996 18.7002 61.0996 18.6002 60.7996C18.5002 60.5996 18.5002 60.4996 18.3002 60.3996C18.2002 60.2996 18.0002 60.1996 17.9002 59.9996L16.1002 62.0996C16.3002 62.2996 16.5002 62.3996 16.6002 62.4996C16.7002 62.5996 16.9002 62.6996 17.1002 62.6996C17.3002 62.6996 17.5002 62.6996 17.7002 62.5996C17.8002 62.4996 18.0002 62.3996 18.2002 62.1996ZM19.1002 62.8996C18.8002 63.1996 18.5002 63.3996 18.2002 63.5996C17.8002 63.6996 17.5002 63.7996 17.2002 63.6996C16.9002 63.6996 16.7002 63.5996 16.4002 63.3996C16.2002 63.2996 15.9002 63.0996 15.7002 62.8996L14.7002 61.9996L17.6002 58.5996L18.6002 59.4996C18.8002 59.6996 19.0002 59.8996 19.2002 60.0996C19.4002 60.2996 19.5002 60.5996 19.6002 60.7996C19.7002 61.0996 19.7002 61.4996 19.6002 61.7996C19.5002 62.2996 19.3002 62.5996 19.1002 62.8996ZM11.5002 58.3996L14.9002 55.4996L16.9002 57.7996L16.3002 58.3996L15.1002 56.9996L14.5002 57.4996L15.7002 58.7996L15.1002 59.3996L13.9002 58.0996L13.1002 58.7996L14.3002 60.1996L13.7002 60.7996L11.5002 58.3996ZM10.4002 56.8996L9.8002 55.8996L12.3002 54.3996L10.2002 54.6996L9.8002 53.9996L11.0002 52.2996L8.5002 53.7996L8.0002 52.8996L11.8002 50.5996L12.5002 51.6996L11.1002 53.6996L13.5002 53.3996L14.2002 54.4996L10.4002 56.8996ZM6.3002 48.4996L10.5002 46.8996L11.6002 49.6996L10.8002 49.9996L10.1002 48.1996L9.40019 48.4996L10.0002 50.0996L9.2002 50.3996L8.6002 48.7996L7.6002 49.1996L8.3002 50.9996L7.5002 51.2996L6.3002 48.4996ZM5.2002 43.8996L9.5002 42.8996L10.2002 45.7996L9.40019 45.9996L9.0002 44.0996L8.2002 44.2996L8.6002 45.9996L7.8002 46.1996L7.40019 44.4996L6.3002 44.7996L6.7002 46.5996L5.90019 46.7996L5.2002 43.8996ZM7.1002 40.9996C7.4002 40.9996 7.6002 40.8996 7.8002 40.7996C8.0002 40.6996 8.1002 40.4996 8.3002 40.2996C8.4002 40.0996 8.40019 39.9996 8.40019 39.7996C8.40019 39.5996 8.40019 39.3996 8.40019 39.1996L5.6002 39.3996C5.6002 39.5996 5.6002 39.8996 5.7002 39.9996C5.7002 40.1996 5.80019 40.2996 5.90019 40.4996C6.00019 40.6996 6.20019 40.7996 6.40019 40.8996C6.50019 40.9996 6.8002 40.9996 7.1002 40.9996ZM7.1002 42.0996C6.7002 42.0996 6.3002 42.0996 6.0002 41.8996C5.7002 41.6996 5.4002 41.4996 5.2002 41.2996C5.0002 41.0996 4.90019 40.7996 4.90019 40.5996C4.80019 40.2996 4.8002 39.9996 4.8002 39.6996L4.7002 38.2996L9.1002 37.9996L9.2002 39.3996C9.2002 39.6996 9.2002 39.9996 9.2002 40.2996C9.2002 40.5996 9.1002 40.7996 9.0002 41.0996C8.8002 41.3996 8.6002 41.6996 8.3002 41.7996C7.9002 41.9996 7.6002 42.0996 7.1002 42.0996Z"
        fill="white" />
</svg>