<?xml version="1.0" encoding="UTF-8"?>
<svg id="Layer_2" data-name="Layer 2" xmlns="http://www.w3.org/2000/svg" viewBox="0 0 119.32 32">
  <defs>
    <style>
      .cls-1 {
        fill: #1d1d1b;
      }

      .cls-2 {
        fill: #fff;
      }

      .cls-3 {
        fill: #f7a600;
      }
    </style>
  </defs>
  <g id="Layer_1-2" data-name="Layer 1">
    <g>
      <polygon class="cls-1" points="36.54 1.61 38 1.61 39.29 5.8 40.68 1.59 41.86 1.59 43.26 5.8 44.54 1.61 45.97 1.61 43.85 7.85 42.67 7.85 41.24 3.79 39.85 7.85 38.66 7.85 36.54 1.61"/>
      <path class="cls-1" d="M51.25,4.74h0c.02-.51-.17-1-.52-1.37-.35-.37-.84-.58-1.35-.58-.51,0-.99.2-1.34.57-.35.37-.54.86-.51,1.36-.02.51.17,1,.52,1.37s.84.57,1.35.58c.51,0,.99-.2,1.34-.57.35-.36.54-.85.52-1.36ZM46.09,4.74h0c.07-1.76,1.53-3.16,3.29-3.16s3.22,1.39,3.29,3.16c-.07,1.76-1.53,3.16-3.29,3.16s-3.22-1.39-3.29-3.16Z"/>
      <path class="cls-1" d="M56.3,4.62c.66,0,1.05-.36,1.05-.88,0-.59-.41-.88-1.07-.88h-1.35v1.78l1.38-.02ZM53.55,1.61h2.83c.65-.03,1.29.19,1.78.63.36.38.55.89.53,1.42.04.87-.5,1.65-1.33,1.92l1.52,2.21h-1.59l-1.33-1.98h-1.07v1.98h-1.36l.03-6.18Z"/>
      <polygon class="cls-1" points="61.09 1.61 61.09 6.56 64.18 6.56 64.18 7.8 59.73 7.8 59.73 1.61 61.09 1.61"/>
      <path class="cls-1" d="M67.27,6.57c.5.03.98-.16,1.33-.51.35-.35.55-.83.53-1.32.03-.5-.16-.99-.52-1.35-.36-.36-.85-.54-1.35-.52h-1.05v3.73l1.05-.04ZM64.86,1.61h2.41c.85-.06,1.69.24,2.31.83.62.58.98,1.4.98,2.25,0,.86-.35,1.67-.97,2.26-.62.59-1.46.89-2.32.83h-2.41V1.61Z"/>
      <path class="cls-1" d="M37.33,16.46v-3.56h1.36v3.5c0,1.01.5,1.53,1.33,1.53s1.34-.5,1.34-1.48v-3.56h1.36v3.5c0,1.87-1.05,2.79-2.72,2.79s-2.68-.9-2.68-2.73Z"/>
      <polygon class="cls-1" points="43.79 12.92 45.04 12.92 47.94 16.73 47.94 12.92 49.28 12.92 49.28 19.11 48.1 19.11 45.1 15.18 45.1 19.11 43.79 19.11 43.79 12.92"/>
      <rect class="cls-1" x="50.46" y="12.92" width="1.36" height="6.19"/>
      <polygon class="cls-1" points="52.46 12.92 53.96 12.92 55.58 17.28 57.2 12.92 58.67 12.92 56.17 19.16 54.98 19.16 52.46 12.92"/>
      <polygon class="cls-1" points="59.3 12.92 64 12.92 64 14.14 60.69 14.14 60.69 15.41 63.61 15.41 63.61 16.59 60.69 16.59 60.69 17.9 64 17.9 64 19.08 59.26 19.08 59.3 12.92"/>
      <path class="cls-1" d="M67.72,15.93c.66,0,1.04-.36,1.04-.88,0-.59-.41-.88-1.07-.88h-1.35v1.78l1.38-.02ZM64.97,12.92h2.83c.65-.04,1.29.19,1.78.63.36.38.56.89.53,1.42.04.87-.5,1.65-1.33,1.92l1.51,2.21h-1.56l-1.33-1.98h-1.07v1.98h-1.36v-6.18Z"/>
      <path class="cls-1" d="M70.82,18.21l.81-.97c.51.47,1.17.74,1.86.75.56,0,.89-.22.89-.59,0-.34-.21-.52-1.25-.78-1.24-.32-2.05-.66-2.05-1.9,0-1.12.9-1.87,2.17-1.87.83-.02,1.64.26,2.29.77l-.71,1.03c-.46-.35-1.02-.56-1.61-.59-.52,0-.8.24-.8.54,0,.41.27.54,1.34.82,1.26.33,1.96.78,1.96,1.86,0,1.23-.94,1.92-2.28,1.92-.97,0-1.9-.34-2.63-.98Z"/>
      <rect class="cls-1" x="76.62" y="12.92" width="1.36" height="6.19"/>
      <polygon class="cls-1" points="80.55 14.18 78.67 14.18 78.67 12.92 83.8 12.92 83.8 14.18 81.91 14.18 81.91 19.11 80.55 19.11 80.55 14.18"/>
      <polygon class="cls-1" points="86.52 16.67 84.15 12.92 85.75 12.92 87.22 15.41 88.73 12.92 90.28 12.92 87.91 16.65 87.91 19.11 86.52 19.11 86.52 16.67"/>
      <path class="cls-1" d="M40.07,27.26c.66,0,1.04-.36,1.04-.88,0-.59-.41-.88-1.07-.88h-1.36v1.78l1.38-.02ZM37.33,24.24h2.83c.65-.03,1.29.19,1.78.63.36.38.55.89.53,1.42.04.87-.5,1.65-1.33,1.92l1.52,2.23h-1.58l-1.33-1.99h-1.07v1.98h-1.36v-6.19Z"/>
      <path class="cls-1" d="M47.06,27.86l-.84-2.02-.81,2.02h1.64ZM45.63,24.2h1.26l2.66,6.23h-1.42l-.59-1.39h-2.6l-.59,1.39h-1.36l2.66-6.23Z"/>
      <polygon class="cls-1" points="50.16 24.24 51.42 24.24 54.32 28.06 54.32 24.24 55.67 24.24 55.67 30.43 54.48 30.43 51.49 26.5 51.49 30.43 50.16 30.43 50.16 24.24"/>
      <polygon class="cls-1" points="58.19 24.24 58.19 26.95 60.71 24.24 62.36 24.24 59.85 26.87 62.49 30.43 60.86 30.43 58.94 27.8 58.22 28.54 58.22 30.43 56.86 30.43 56.86 24.24 58.19 24.24"/>
      <rect class="cls-1" x="63.11" y="24.24" width="1.36" height="6.19"/>
      <polygon class="cls-1" points="65.63 24.24 66.89 24.24 69.79 28.06 69.79 24.24 71.11 24.24 71.11 30.43 69.93 30.43 66.97 26.5 66.97 30.43 65.62 30.43 65.63 24.24"/>
      <path class="cls-1" d="M72.03,27.36h0c0-.86.33-1.68.94-2.29.61-.6,1.44-.93,2.3-.92.89-.05,1.77.25,2.44.85l-.86,1.04c-.43-.42-1.02-.64-1.62-.63-1.02.04-1.82.9-1.78,1.93-.03.51.15,1.02.51,1.39.36.37.85.58,1.36.57.46.01.91-.11,1.29-.37v-.89h-1.35v-1.19h2.68v2.69c-.74.65-1.7,1-2.68.99-.86.04-1.7-.28-2.31-.89-.61-.6-.95-1.44-.92-2.3Z"/>
      <path class="cls-1" d="M78.58,29.53l.84-.97c.5.47,1.16.73,1.85.75.56,0,.89-.22.89-.59,0-.34-.21-.52-1.25-.79-1.24-.32-2.05-.66-2.05-1.9,0-1.13.9-1.87,2.17-1.87.83-.02,1.65.26,2.3.78l-.71,1.03c-.46-.36-1.02-.56-1.61-.59-.52,0-.8.24-.8.54,0,.4.27.54,1.34.81,1.26.33,1.96.78,1.96,1.85,0,1.23-.94,1.92-2.28,1.92-.98.01-1.92-.34-2.66-.99Z"/>
      <rect class="cls-3" y="0" width="32" height="32"/>
      <path class="cls-2" d="M23.24,14.13c-2.16-.55-2.7-.82-2.7-1.64v-.05c0-.59.56-1.09,1.61-1.09,1.18.07,2.32.5,3.25,1.23l1.42-2.07c-1.31-1.06-2.95-1.62-4.63-1.59-2.55,0-4.37,1.5-4.37,3.76v.04c0,2.48,1.62,3.17,4.15,3.81,2.09.54,2.51.89,2.51,1.59v.04c0,.73-.68,1.19-1.78,1.19-1.39-.01-2.73-.55-3.75-1.51l-.07-.06s-.18-.15-.3-.27c-.05-.04-.1-.09-.14-.15-.23.87-.62,1.68-1.13,2.42l.31.26c1.41,1.12,3.16,1.73,4.97,1.72,2.69,0,4.58-1.39,4.58-3.87v-.04c0-2.16-1.42-3.04-3.95-3.73Z"/>
      <path class="cls-2" d="M20.41,23.77l-6.72-5.46c-1.38,1.23-3.44,1.33-4.93.23-1.49-1.1-2.01-3.09-1.25-4.78.76-1.69,2.61-2.61,4.42-2.21,1.81.4,3.09,2.01,3.08,3.86,0,.71-.19,1.41-.56,2.02l1.96,1.62c1.83-2.68,1.38-6.31-1.05-8.46-2.44-2.15-6.09-2.15-8.53,0-2.44,2.15-2.89,5.78-1.06,8.46,1.83,2.68,5.38,3.58,8.27,2.1l6.17,2.93.21-.3Z"/>
      <rect class="cls-3" x="75.14" width="44.17" height="8.89"/>
      <rect class="cls-3" x="94.99" y="11.56" width="24.32" height="8.89"/>
      <rect class="cls-3" x="88.37" y="23.11" width="30.95" height="8.89"/>
    </g>
  </g>
</svg>