<svg width="401" height="195" viewBox="0 0 401 195" fill="none" xmlns="http://www.w3.org/2000/svg">
<rect width="400.541" height="195" fill="white"/>
<path d="M148.881 74.999C148.296 74.999 147.8 75.4217 147.708 75.9972L140.937 118.737C140.913 118.893 140.923 119.053 140.966 119.205C141.009 119.357 141.085 119.498 141.188 119.618C141.291 119.738 141.419 119.834 141.564 119.9C141.708 119.967 141.865 120.001 142.023 120.001H150.053C150.637 120.001 151.135 119.577 151.226 119.003L153.215 106.452C153.306 105.877 153.803 105.454 154.388 105.454H161.689C170.218 105.454 177.459 99.2587 178.782 90.8645C180.115 82.3992 173.471 75.0174 164.054 74.999H148.881ZM156.687 84.5402H162.528C167.336 84.5402 168.902 87.3644 168.407 90.4878C167.912 93.6177 165.48 95.9233 160.828 95.9233H154.883L156.687 84.5402ZM195.113 87.4455C193.085 87.453 190.752 87.8665 188.133 88.9524C182.125 91.445 179.24 96.5965 178.015 100.352C178.015 100.352 174.115 111.81 182.926 118.106C182.926 118.106 191.097 124.166 200.296 117.732L200.137 118.737C200.112 118.893 200.122 119.052 200.165 119.204C200.208 119.356 200.284 119.497 200.387 119.617C200.49 119.737 200.618 119.834 200.762 119.9C200.906 119.966 201.063 120.001 201.221 120.001H208.844C209.429 120.001 209.925 119.577 210.017 119.003L214.654 89.7343C214.678 89.5782 214.669 89.4186 214.626 89.2664C214.583 89.1143 214.507 88.9732 214.404 88.853C214.301 88.7327 214.173 88.6361 214.029 88.5698C213.885 88.5034 213.728 88.469 213.569 88.4688H205.947C205.362 88.4688 204.864 88.8923 204.774 89.467L204.524 91.0424C204.524 91.0424 201.196 87.4229 195.113 87.4455ZM195.362 96.6901C196.237 96.6901 197.038 96.8104 197.756 97.0401C201.045 98.091 202.91 101.236 202.37 104.645C201.705 108.843 198.246 111.933 193.811 111.933C192.937 111.933 192.136 111.814 191.417 111.584C188.129 110.533 186.252 107.388 186.792 103.979C187.457 99.7817 190.927 96.6901 195.362 96.6901Z" fill="#003087"/>
<path d="M258.65 74.999C258.065 74.999 257.568 75.4217 257.477 75.9972L250.706 118.737C250.681 118.893 250.691 119.053 250.734 119.205C250.777 119.357 250.853 119.498 250.957 119.618C251.06 119.738 251.188 119.834 251.332 119.9C251.476 119.967 251.633 120.001 251.792 120.001H259.821C260.405 120.001 260.903 119.577 260.995 119.003L262.984 106.452C263.074 105.877 263.572 105.454 264.157 105.454H271.457C279.987 105.454 287.227 99.2587 288.548 90.8645C289.883 82.3992 283.24 75.0174 273.823 74.999H258.65ZM266.455 84.5402H272.296C277.105 84.5402 278.671 87.3644 278.176 90.4878C277.681 93.6177 275.249 95.9233 270.597 95.9233H264.652L266.455 84.5402ZM304.88 87.4455C302.853 87.453 300.52 87.8665 297.9 88.9524C291.893 91.445 289.007 96.5965 287.782 100.352C287.782 100.352 283.884 111.81 292.695 118.106C292.695 118.106 300.865 124.166 310.064 117.732L309.905 118.737C309.881 118.893 309.89 119.053 309.934 119.205C309.977 119.357 310.053 119.498 310.156 119.618C310.259 119.738 310.387 119.834 310.531 119.9C310.676 119.967 310.832 120.001 310.991 120.001H318.613C319.198 120.001 319.695 119.577 319.786 119.003L324.424 89.7343C324.449 89.578 324.44 89.4183 324.397 89.266C324.354 89.1138 324.278 88.9726 324.175 88.8523C324.071 88.7321 323.943 88.6355 323.799 88.5692C323.655 88.503 323.497 88.4687 323.339 88.4688H315.716C315.131 88.4688 314.633 88.8923 314.543 89.467L314.294 91.0424C314.294 91.0424 310.964 87.4229 304.88 87.4455ZM305.129 96.6901C306.005 96.6901 306.805 96.8104 307.524 97.0401C310.813 98.091 312.677 101.236 312.138 104.645C311.472 108.843 308.014 111.933 303.579 111.933C302.704 111.933 301.904 111.814 301.184 111.584C297.896 110.533 296.02 107.388 296.559 103.979C297.225 99.7817 300.694 96.6901 305.129 96.6901Z" fill="#0070E0"/>
<path d="M218.271 88.4686C217.666 88.4686 217.237 89.0558 217.421 89.6281L225.778 115.441L218.222 127.605C217.855 128.195 218.281 128.958 218.979 128.958H227.91C228.165 128.958 228.416 128.892 228.639 128.767C228.861 128.642 229.047 128.462 229.179 128.245L252.519 89.8135C252.877 89.2229 252.449 88.4678 251.756 88.4678H242.826C242.568 88.468 242.315 88.535 242.091 88.6623C241.867 88.7896 241.68 88.9727 241.549 89.1937L232.362 104.632L227.698 89.3081C227.546 88.8094 227.084 88.4678 226.561 88.4678L218.271 88.4686Z" fill="#003087"/>
<path d="M333.085 74.999C332.501 74.999 332.003 75.4225 331.912 75.9972L325.14 118.735C325.115 118.892 325.124 119.051 325.167 119.204C325.21 119.356 325.286 119.497 325.389 119.617C325.493 119.738 325.621 119.834 325.765 119.9C325.909 119.967 326.067 120.001 326.225 120.001H334.255C334.839 120.001 335.337 119.577 335.428 119.003L342.199 76.2629C342.224 76.1069 342.214 75.9475 342.171 75.7955C342.128 75.6436 342.052 75.5028 341.949 75.3827C341.846 75.2626 341.718 75.1662 341.574 75.0999C341.43 75.0337 341.273 74.9993 341.115 74.999H333.085Z" fill="#0070E0"/>
<path d="M81.9412 74.999C81.4239 74.9994 80.9238 75.1835 80.5306 75.518C80.1375 75.8526 79.877 76.3157 79.7961 76.8242L76.2321 99.3247C76.3982 98.2739 77.3079 97.4995 78.377 97.4995H88.821C99.3321 97.4995 108.251 89.8671 109.881 79.524C110.002 78.7518 110.071 77.9724 110.087 77.1909C107.415 75.7968 104.278 74.999 100.839 74.999H81.9412Z" fill="#001C64"/>
<path d="M110.086 77.1914C110.071 77.9728 110.002 78.7523 109.881 79.5245C108.251 89.8676 99.3312 97.5 88.8209 97.5H78.377C77.3087 97.5 76.3981 98.2735 76.232 99.3252L72.9548 120.001L70.9022 132.972C70.8621 133.223 70.8771 133.479 70.9462 133.724C71.0153 133.968 71.1368 134.194 71.3024 134.387C71.4679 134.58 71.6736 134.735 71.9051 134.841C72.1367 134.947 72.3886 135.002 72.6435 135.002H83.9795C84.4968 135.002 84.9969 134.818 85.3901 134.483C85.7832 134.149 86.0436 133.686 86.1245 133.177L89.1104 114.326C89.1913 113.817 89.452 113.354 89.8455 113.019C90.2391 112.685 90.7396 112.501 91.2572 112.501H97.9314C108.442 112.501 117.362 104.868 118.991 94.5254C120.149 87.1845 116.434 80.5043 110.086 77.1914Z" fill="#0070E0"/>
<path d="M69.0625 60C67.9942 60 67.0837 60.7735 66.9175 61.8235L58.0219 117.971C57.8532 119.037 58.6807 120.001 59.765 120.001H72.9565L76.2319 99.3249L79.796 76.8244C79.8769 76.3159 80.1373 75.8528 80.5305 75.5182C80.9237 75.1837 81.4238 74.9997 81.941 74.9992H100.839C104.278 74.9992 107.415 75.7978 110.086 77.1911C110.269 67.7744 102.463 60 91.7304 60H69.0625Z" fill="#003087"/>
</svg>
